<svg width="24" height="24" viewBox="0 0 24 24" fill="none" xmlns="http://www.w3.org/2000/svg">
<path d="M20.1198 5H6.89492C6.64728 5 6.41113 5.10416 6.24416 5.28725L0.2295 11.8887C-0.0764998 12.2246 -0.0764998 12.7381 0.2295 13.0743L6.24416 19.6757C6.41108 19.8588 6.64728 19.963 6.89492 19.963H20.1198C20.606 19.963 21 19.569 21 19.0831V5.88022C21 5.39403 20.606 5 20.1198 5ZM19.2397 18.2026H7.28366L2.07117 12.4813L7.28366 6.76006H19.2396L19.2397 18.2026Z" fill="#A6DF6E"/>
<path d="M15.5748 9.44937C15.2286 9.10784 14.6717 9.11107 14.3299 9.45701L9.57682 14.2687C9.23529 14.6147 9.23852 15.1718 9.58446 15.5136C9.75612 15.6829 9.97938 15.7674 10.2029 15.7674C10.4297 15.7674 10.6571 15.68 10.8293 15.506L15.5824 10.6943C15.924 10.3483 15.9207 9.79118 15.5748 9.44937Z" fill="#A6DF6E"/>
<path d="M15.6041 14.2315L10.7927 9.47871C10.4468 9.13718 9.88933 9.1407 9.54813 9.48635C9.20632 9.83229 9.20955 10.3894 9.55544 10.7313L14.3669 15.4843C14.5385 15.6536 14.7618 15.7381 14.9853 15.7381C15.2121 15.7381 15.4395 15.6506 15.6115 15.4764C15.9533 15.1305 15.9501 14.5733 15.6041 14.2315Z" fill="#A6DF6E"/>
</svg>
